<svg xmlns="http://www.w3.org/2000/svg" xmlns:xlink="http://www.w3.org/1999/xlink" viewBox="0 0 195.04 195.04"><defs><style>.cls-1{fill:none;}.cls-2{clip-path:url(#clip-path);}.cls-3{fill:#231f20;}</style><clipPath id="clip-path"><rect class="cls-1" width="195.04" height="195.04"/></clipPath></defs><title>Asset 10</title><g id="Layer_2" data-name="Layer 2"><g id="Layer_1-2" data-name="Layer 1"><g class="cls-2"><path class="cls-3" d="M73.77,60.08a11.2,11.2,0,0,0-2.61-1,10.53,10.53,0,0,0-2.6-.35,6.86,6.86,0,0,0-2.42.4,5.15,5.15,0,0,0-1.83,1.13A5.21,5.21,0,0,0,63.15,62a6.06,6.06,0,0,0-.41,2.26,4.81,4.81,0,0,0,.39,2.07,3.85,3.85,0,0,0,1,1.34,5,5,0,0,0,1.44.86c.55.22,1.1.41,1.66.59s.88.31,1.22.45a3.38,3.38,0,0,1,.81.43,1.51,1.51,0,0,1,.45.51,1.53,1.53,0,0,1,.13.66,1.46,1.46,0,0,1-.52,1.11,2.25,2.25,0,0,1-1.6.49,4.69,4.69,0,0,1-1.89-.42A7.6,7.6,0,0,1,63.92,71l-1.87,3.52A10.12,10.12,0,0,0,68,76.45,8.7,8.7,0,0,0,70.71,76a5.88,5.88,0,0,0,2-1.16A4.73,4.73,0,0,0,74,73.09a6.06,6.06,0,0,0,.44-2.34,4.71,4.71,0,0,0-1-3.11,6.75,6.75,0,0,0-3.13-1.9l-1.08-.34a5.58,5.58,0,0,1-1-.36,2.26,2.26,0,0,1-.7-.51,1,1,0,0,1-.27-.73,1.27,1.27,0,0,1,.53-1,2.3,2.3,0,0,1,1.38-.4,3.75,3.75,0,0,1,1.39.28,5.39,5.39,0,0,1,1.42.86Z"/><path class="cls-3" d="M85.81,70h2.58a5.93,5.93,0,0,0,4.33-1.47,5.51,5.51,0,0,0,1.51-4.15,5.5,5.5,0,0,0-1.51-4.14,5.93,5.93,0,0,0-4.33-1.47h-7v16.8h4.37Zm0-7.71h1.45c1.6,0,2.4.7,2.4,2.09s-.8,2.1-2.4,2.1H85.81Z"/></g><rect class="cls-3" x="100.23" y="58.72" width="4.37" height="16.8"/><polygon class="cls-3" points="117.97 75.52 117.97 65.25 126.04 75.52 130.38 75.52 130.38 58.72 126.04 58.72 126.04 68.99 117.97 58.72 113.61 58.72 113.61 75.52 117.97 75.52"/><g class="cls-2"><path class="cls-3" d="M65.41,112.26a12.34,12.34,0,0,0-2-.66,9.21,9.21,0,0,0-2-.21,8.75,8.75,0,0,0-3.36.66,8.8,8.8,0,0,0-4.76,4.61,9.07,9.07,0,0,0,0,7.13,9.25,9.25,0,0,0,1.94,2.83,8.73,8.73,0,0,0,6.14,2.5A9.26,9.26,0,0,0,63.1,129a13.84,13.84,0,0,0,1.87-.53l.44-.15v-5.17a5,5,0,0,1-3.76,1.78,4.39,4.39,0,0,1-1.78-.36,4.46,4.46,0,0,1-2.4-2.45,4.82,4.82,0,0,1-.34-1.84,4.77,4.77,0,0,1,.34-1.83,4.55,4.55,0,0,1,1-1.46,4.4,4.4,0,0,1,1.44-1,4.5,4.5,0,0,1,1.81-.36,4.66,4.66,0,0,1,3.74,1.85Z"/></g><polygon class="cls-3" points="77.82 128.19 82.19 128.19 82.19 120.13 88.33 111.39 83.12 111.39 80.02 115.98 76.91 111.39 71.69 111.39 77.82 120.13 77.82 128.19"/><g class="cls-2"><path class="cls-3" d="M104.47,112.26a13,13,0,0,0-2-.66,9.28,9.28,0,0,0-2-.21,8.76,8.76,0,0,0-3.37.66,8.86,8.86,0,0,0-2.81,1.83,8.74,8.74,0,0,0-1.94,2.78,9,9,0,0,0,0,7.13,9.28,9.28,0,0,0,2,2.83,8.68,8.68,0,0,0,6.13,2.5,9.18,9.18,0,0,0,1.72-.16,13.84,13.84,0,0,0,1.87-.53l.45-.15v-5.17a5.06,5.06,0,0,1-3.77,1.78,4.39,4.39,0,0,1-1.78-.36,4.4,4.4,0,0,1-2.39-2.45,4.82,4.82,0,0,1-.35-1.84,4.77,4.77,0,0,1,.35-1.83,4.53,4.53,0,0,1,.94-1.46,4.4,4.4,0,0,1,1.44-1,4.53,4.53,0,0,1,1.81-.36,4.68,4.68,0,0,1,3.75,1.85Z"/></g><polygon class="cls-3" points="113.27 111.39 113.27 128.19 122.87 128.19 122.87 124.49 117.63 124.49 117.63 111.39 113.27 111.39"/><polygon class="cls-3" points="139.87 111.39 130.32 111.39 130.32 128.19 139.87 128.19 139.87 124.49 134.68 124.49 134.68 121.59 139.58 121.59 139.58 117.9 134.68 117.9 134.68 115.09 139.87 115.09 139.87 111.39"/><g class="cls-2"><path class="cls-3" d="M174.2,24A6.08,6.08,0,1,1,168.12,18,6.08,6.08,0,0,1,174.2,24m-20,0A6.08,6.08,0,1,1,148.12,18,6.08,6.08,0,0,1,154.2,24M97.52,29.52a68,68,0,0,1,67.82,63.23,14.27,14.27,0,0,1-6.67,1.58,13.16,13.16,0,0,1-9.91-4.08,20.26,20.26,0,0,0-29.31,0,14.08,14.08,0,0,1-19.82,0,20.26,20.26,0,0,0-29.31,0,13.13,13.13,0,0,1-9.91,4.08,13.13,13.13,0,0,1-9.91-4.08A19.5,19.5,0,0,0,35.84,84a20.8,20.8,0,0,0-5.08.64,68,68,0,0,1,66.76-55.1m-68,68c0-1.51.07-3,.16-4.48a14.55,14.55,0,0,1,6.16-1.34,13.14,13.14,0,0,1,9.91,4.09,19.54,19.54,0,0,0,14.66,6.27,19.54,19.54,0,0,0,14.66-6.27,14,14,0,0,1,19.81,0,20.27,20.27,0,0,0,29.32,0,14,14,0,0,1,19.81,0,19.54,19.54,0,0,0,14.66,6.27,21,21,0,0,0,6.76-1.13A68,68,0,0,1,29.52,97.52M195,0H0V195H195Z"/></g></g></g></svg>