<svg xmlns="http://www.w3.org/2000/svg" xmlns:xlink="http://www.w3.org/1999/xlink" viewBox="0 0 195.04 195.04"><defs><style>.cls-1,.cls-3{fill:none;}.cls-2{clip-path:url(#clip-path);}.cls-3{stroke:#231f20;stroke-width:10px;}.cls-4{fill:#231f20;}</style><clipPath id="clip-path"><rect class="cls-1" width="195.04" height="195.04"/></clipPath></defs><title>Asset 11</title><g id="Layer_2" data-name="Layer 2"><g id="Layer_1-2" data-name="Layer 1"><g class="cls-2"><rect class="cls-3" x="5" y="5" width="185.04" height="185.04"/><path class="cls-4" d="M50.91,123.21a8.63,8.63,0,0,1,.72-3.55,8.74,8.74,0,0,1,1.94-2.78,8.91,8.91,0,0,1,2.82-1.83,8.75,8.75,0,0,1,3.36-.66,9.21,9.21,0,0,1,2,.21,12.34,12.34,0,0,1,2,.66v5.21A4.67,4.67,0,0,0,60,118.62a4.55,4.55,0,0,0-1.82.36,4.39,4.39,0,0,0-2.38,2.43,4.77,4.77,0,0,0-.35,1.83,4.82,4.82,0,0,0,.35,1.84,4.36,4.36,0,0,0,1,1.47,4.29,4.29,0,0,0,1.43,1,4.44,4.44,0,0,0,1.79.36,5,5,0,0,0,3.76-1.78v5.17l-.45.15a13.44,13.44,0,0,1-1.87.53,9.15,9.15,0,0,1-1.71.16,8.73,8.73,0,0,1-6.14-2.5,9.28,9.28,0,0,1-2-2.83,8.65,8.65,0,0,1-.73-3.58M70,114.39h5.21L78.37,119l3.1-4.59h5.21l-6.15,8.73v8.07H76.17v-8.07ZM92,123.21a8.48,8.48,0,0,1,.73-3.55,8.72,8.72,0,0,1,1.93-2.78,8.91,8.91,0,0,1,2.82-1.83,8.75,8.75,0,0,1,3.36-.66,9.38,9.38,0,0,1,2,.21,12.55,12.55,0,0,1,2,.66v5.21a4.66,4.66,0,0,0-3.74-1.85,4.5,4.5,0,0,0-1.81.36,4.36,4.36,0,0,0-2.39,2.43,4.77,4.77,0,0,0-.34,1.83,4.82,4.82,0,0,0,.34,1.84,4.49,4.49,0,0,0,4.18,2.81,5,5,0,0,0,3.76-1.78v5.17l-.44.15a13.84,13.84,0,0,1-1.87.53,9.18,9.18,0,0,1-1.72.16,8.68,8.68,0,0,1-6.13-2.5,9.28,9.28,0,0,1-2-2.83,8.66,8.66,0,0,1-.74-3.58m22.65-8.82H119v13.1h5.24v3.7h-9.61Zm18,0h9.56v3.7H137v2.81h4.9v3.69H137v2.9h5.19v3.7h-9.56ZM34.51,91.7a14.94,14.94,0,0,0-4.87.81c-.12,1.66-.2,3.32-.2,5a68.08,68.08,0,0,0,136.09,2.88,20.73,20.73,0,0,1-8.19,1.65h0a19.51,19.51,0,0,1-14.66-6.26,14.05,14.05,0,0,0-19.82,0,20.28,20.28,0,0,1-29.31,0,14.05,14.05,0,0,0-19.82,0,19.53,19.53,0,0,1-14.66,6.26h0a19.49,19.49,0,0,1-14.65-6.26,13.17,13.17,0,0,0-9.91-4.09M90,60.33c0-1.39-.8-2.09-2.41-2.09H86.16v4.19H87.6c1.61,0,2.41-.7,2.41-2.1m41.72,11.18h-4.35l-8.06-10.26V71.51H115V54.72h4.36L127.38,65V54.72h4.35Zm-25.78,0h-4.37V54.72H106ZM94.58,60.33a5.55,5.55,0,0,1-1.51,4.15A5.93,5.93,0,0,1,88.74,66H86.16v5.56H81.79V54.72h6.95a5.93,5.93,0,0,1,4.33,1.47,5.54,5.54,0,0,1,1.51,4.14M66.66,59.8a1.05,1.05,0,0,0,.26.73,2.32,2.32,0,0,0,.7.5,5,5,0,0,0,1,.37l1.08.34a6.72,6.72,0,0,1,3.12,1.9,4.67,4.67,0,0,1,1,3.11,6.06,6.06,0,0,1-.44,2.34,4.84,4.84,0,0,1-1.27,1.79,5.84,5.84,0,0,1-2,1.16,8.64,8.64,0,0,1-2.75.41,10.12,10.12,0,0,1-5.9-1.89L63.27,67a7.43,7.43,0,0,0,1.94,1.29,4.69,4.69,0,0,0,1.89.42,2.23,2.23,0,0,0,1.59-.49,1.49,1.49,0,0,0,.53-1.11,1.53,1.53,0,0,0-.14-.66,1.47,1.47,0,0,0-.44-.51,3.38,3.38,0,0,0-.81-.43c-.34-.14-.74-.29-1.22-.45s-1.12-.37-1.66-.59a5.4,5.4,0,0,1-1.45-.86,3.89,3.89,0,0,1-1-1.35,4.73,4.73,0,0,1-.39-2.06A6.06,6.06,0,0,1,62.5,58a5.07,5.07,0,0,1,1.16-1.73,5.15,5.15,0,0,1,1.83-1.13,6.81,6.81,0,0,1,2.41-.4,10.67,10.67,0,0,1,2.61.35,11.37,11.37,0,0,1,2.61,1l-1.74,3.41A5.18,5.18,0,0,0,70,58.63a3.66,3.66,0,0,0-1.38-.28,2.24,2.24,0,0,0-1.38.4,1.25,1.25,0,0,0-.53,1m90.68,34.53a13.91,13.91,0,0,0,8-2.4,68.07,68.07,0,0,0-134.62-7.6A21.43,21.43,0,0,1,34.51,84a19.49,19.49,0,0,1,14.65,6.26,13.17,13.17,0,0,0,9.91,4.09A13.1,13.1,0,0,0,69,90.24a20.3,20.3,0,0,1,29.32,0,14,14,0,0,0,19.81,0,20.3,20.3,0,0,1,29.32,0,13.14,13.14,0,0,0,9.91,4.09"/><path class="cls-4" d="M170.08,30.11A6.08,6.08,0,1,0,164,24a6.08,6.08,0,0,0,6.08,6.08"/><path class="cls-4" d="M150.08,30.11A6.08,6.08,0,1,0,144,24a6.08,6.08,0,0,0,6.08,6.08"/></g></g></g></svg>