<svg xmlns="http://www.w3.org/2000/svg" xmlns:xlink="http://www.w3.org/1999/xlink" viewBox="0 0 195.04 195.04"><defs><style>.cls-1,.cls-3{fill:none;}.cls-2{clip-path:url(#clip-path);}.cls-3{stroke:#231f20;stroke-width:10px;}.cls-4{fill:#231f20;}</style><clipPath id="clip-path"><rect class="cls-1" width="195.04" height="195.04"/></clipPath></defs><title>Asset 13</title><g id="Layer_2" data-name="Layer 2"><g id="Layer_1-2" data-name="Layer 1"><g class="cls-2"><rect class="cls-3" x="5" y="5" width="185.04" height="185.04"/><path class="cls-4" d="M34.51,91.7a14.94,14.94,0,0,0-4.87.81c-.12,1.66-.2,3.32-.2,5a68.08,68.08,0,0,0,136.09,2.88,20.73,20.73,0,0,1-8.19,1.65h0a19.51,19.51,0,0,1-14.66-6.26,14.05,14.05,0,0,0-19.82,0,20.28,20.28,0,0,1-29.31,0,14.05,14.05,0,0,0-19.82,0,19.53,19.53,0,0,1-14.66,6.26h0a19.49,19.49,0,0,1-14.65-6.26,13.17,13.17,0,0,0-9.91-4.09m122.83,2.63a13.91,13.91,0,0,0,8-2.4,68.07,68.07,0,0,0-134.62-7.6A21.43,21.43,0,0,1,34.51,84a19.49,19.49,0,0,1,14.65,6.26,13.17,13.17,0,0,0,9.91,4.09A13.1,13.1,0,0,0,69,90.24a20.3,20.3,0,0,1,29.32,0,14,14,0,0,0,19.81,0,20.3,20.3,0,0,1,29.32,0,13.14,13.14,0,0,0,9.91,4.09"/><path class="cls-4" d="M170.08,30.11A6.08,6.08,0,1,0,164,24a6.08,6.08,0,0,0,6.08,6.08"/><path class="cls-4" d="M150.08,30.11A6.08,6.08,0,1,0,144,24a6.08,6.08,0,0,0,6.08,6.08"/></g></g></g></svg>