<svg xmlns="http://www.w3.org/2000/svg" xmlns:xlink="http://www.w3.org/1999/xlink" viewBox="0 0 195.04 195.04"><defs><style>.cls-1{fill:none;}.cls-2{clip-path:url(#clip-path);}.cls-3{fill:#231f20;}</style><clipPath id="clip-path"><rect class="cls-1" width="195.04" height="195.04"/></clipPath></defs><title>Asset 12</title><g id="Layer_2" data-name="Layer 2"><g id="Layer_1-2" data-name="Layer 1"><g class="cls-2"><path class="cls-3" d="M174.2,24A6.08,6.08,0,1,1,168.12,18,6.08,6.08,0,0,1,174.2,24m-20,0A6.08,6.08,0,1,1,148.12,18,6.08,6.08,0,0,1,154.2,24M97.52,29.52a68,68,0,0,1,67.82,63.23,14.27,14.27,0,0,1-6.67,1.58,13.16,13.16,0,0,1-9.91-4.08,20.26,20.26,0,0,0-29.31,0,14.08,14.08,0,0,1-19.82,0,20.26,20.26,0,0,0-29.31,0,13.13,13.13,0,0,1-9.91,4.08,13.13,13.13,0,0,1-9.91-4.08A19.5,19.5,0,0,0,35.84,84a20.8,20.8,0,0,0-5.08.64,68,68,0,0,1,66.76-55.1m-68,68c0-1.51.07-3,.16-4.48a14.55,14.55,0,0,1,6.16-1.34,13.14,13.14,0,0,1,9.91,4.09,19.54,19.54,0,0,0,14.66,6.27,19.54,19.54,0,0,0,14.66-6.27,14,14,0,0,1,19.81,0,20.27,20.27,0,0,0,29.32,0,14,14,0,0,1,19.81,0,19.54,19.54,0,0,0,14.66,6.27,21,21,0,0,0,6.76-1.13A68,68,0,0,1,29.52,97.52M195,0H0V195H195Z"/></g></g></g></svg>